<svg xmlns="http://www.w3.org/2000/svg" width="600" height="447">
    <rect id="backgroundrect" width="100%" height="100%" x="0" y="0" fill="none" stroke="none" />
    <g class="currentLayer">
        <title>Bezel</title>
        <g fill="None" fill-opacity="0.0" stroke="#898468" stroke-opacity="1.00" stroke-width="0.3"
            id="svg_1">
            <path
                d=" M 0.00 366.00  C 5.30 365.18 6.04 373.20 12.00 372.00 C 12.00 369.00 12.00 366.00 12.00 363.00 C 13.27 365.15 14.30 364.73 14.00 362.00 C 12.30 343.15 14.77 323.94 14.00 305.00 C 13.23 286.06 14.35 266.99 14.00 248.00 C 13.65 229.01 14.16 210.03 14.00 191.00 C 13.84 171.97 14.07 153.09 14.00 134.00 C 13.93 114.91 13.60 96.94 15.00 78.00 C 16.40 59.05 13.47 40.41 15.00 21.00 C 16.53 1.59 43.27 10.10 60.00 9.00 C 76.73 7.90 98.54 9.74 116.22 8.22 C 133.90 6.70 154.56 8.52 173.00 8.00 C 191.44 7.48 211.18 8.19 230.00 8.00 C 248.82 7.81 269.06 8.00 288.00 8.00 C 288.00 5.33 288.00 2.67 288.00 0.00 L 0.00 0.00 L 0.00 366.00 Z"
                id="svg_2" />
        </g>
        <g fill="None" fill-opacity="0.0" stroke="#736E52" stroke-opacity="1.00" stroke-width="0.3"
            id="svg_3">
            <path
                d=" M 288.00 8.00  C 307.45 8.00 326.51 7.99 346.00 8.00 C 365.49 8.01 385.49 7.97 405.00 8.00 C 424.51 8.03 444.57 7.92 464.00 8.00 C 483.43 8.08 503.09 7.40 522.00 9.00 C 540.91 10.60 561.74 6.14 579.00 11.00 C 571.92 15.04 565.33 23.62 559.25 29.25 C 553.17 34.87 542.26 41.27 543.00 49.00 C 543.10 41.87 553.80 40.32 557.25 34.25 C 560.69 28.17 567.87 27.17 572.25 20.25 C 576.62 13.33 585.40 9.55 584.00 21.00 C 582.60 32.45 584.63 39.53 584.00 50.00 C 583.37 60.47 584.29 68.97 584.00 79.00 C 583.71 89.03 584.13 98.17 584.00 108.00 C 583.87 117.83 584.06 127.26 584.00 137.00 C 583.94 146.74 584.03 156.30 584.00 166.00 C 583.97 175.70 584.02 185.32 584.00 195.00 C 583.99 204.68 584.01 214.33 584.00 224.00 C 583.99 233.67 584.02 243.33 584.00 253.00 C 583.98 262.67 584.03 272.33 584.00 282.00 C 583.97 291.67 584.07 301.33 584.00 311.00 C 583.93 320.67 584.16 330.33 584.00 340.00 C 583.84 349.67 584.36 359.33 584.00 369.00 C 583.64 378.67 584.80 388.34 584.00 398.00 C 583.20 407.66 585.71 418.45 584.00 428.00 C 587.96 415.48 583.89 400.74 585.00 387.00 C 586.11 373.26 584.48 358.04 585.00 344.00 C 585.52 329.96 584.73 315.16 585.00 301.00 C 585.27 286.84 584.79 272.15 585.00 258.00 C 585.21 243.85 584.71 229.02 585.00 215.00 C 585.29 200.98 584.44 185.68 585.00 172.00 C 585.56 158.33 583.79 141.89 585.00 129.00 C 586.21 116.11 583.52 104.93 591.00 96.00 C 592.57 99.18 596.92 97.65 600.00 98.00 L 600.00 0.00 L 288.00 0.00 C 288.00 2.67 288.00 5.33 288.00 8.00 Z"
                id="svg_4" />
        </g>
        <g fill="None" fill-opacity="0.0" stroke="#514A36" stroke-opacity="1.00" stroke-width="0.3"
            id="svg_5">
            <path
                d=" M 14.00 362.00  C 14.01 361.95 15.00 362.00 15.00 362.00 C 15.00 326.00 15.00 290.00 15.00 254.00 C 16.67 296.93 16.67 343.14 15.00 386.00 C 15.00 392.94 14.25 404.53 15.00 411.00 C 15.75 417.47 11.68 429.89 18.00 433.00 C 22.88 425.62 28.87 418.81 35.77 413.77 C 42.67 408.73 48.86 399.81 58.00 398.00 C 59.32 400.08 61.19 402.59 64.00 402.00 C 62.22 401.26 59.12 398.62 58.00 397.00 C 51.83 388.09 57.64 374.57 55.00 364.00 C 52.36 353.43 54.78 340.21 53.00 329.00 C 51.22 317.79 52.87 304.64 52.00 293.00 C 51.13 281.36 50.80 270.09 51.00 258.00 C 51.20 245.91 50.93 233.20 51.00 221.00 C 51.07 208.80 51.00 196.24 51.00 184.00 C 49.78 196.62 48.27 210.73 48.00 224.00 C 42.50 222.37 44.22 228.75 44.00 232.00 C 36.33 232.54 41.51 220.92 40.00 216.00 C 34.50 217.63 36.22 211.25 36.00 208.00 C 26.31 210.60 26.96 200.56 28.00 195.00 C 20.53 183.70 22.30 168.57 19.98 154.98 C 17.65 141.38 19.92 125.53 19.00 110.00 C 18.08 94.47 22.92 77.78 22.00 62.00 C 29.21 63.12 35.87 70.38 37.00 78.00 C 44.59 76.19 44.42 81.96 46.97 86.03 C 49.52 90.10 51.22 94.70 51.00 100.00 C 53.19 96.91 51.43 91.84 52.00 88.00 C 54.16 90.76 52.45 95.49 53.00 99.00 C 54.07 87.99 55.64 75.94 55.00 64.00 C 54.36 52.06 62.29 44.84 74.00 46.00 C 85.71 47.16 97.16 43.76 109.00 44.00 C 109.01 44.00 109.00 43.00 109.00 43.00 C 107.98 41.31 114.87 40.64 117.00 41.00 C 113.30 39.52 108.40 39.14 104.00 39.00 C 104.00 34.33 104.00 29.67 104.00 25.00 C 100.55 23.92 99.93 26.50 99.00 29.00 C 95.72 28.57 92.53 27.52 89.00 28.00 C 88.81 23.99 87.40 20.23 88.00 16.00 C 91.61 16.71 94.49 14.77 98.00 15.00 C 98.58 11.63 93.28 14.25 93.00 11.00 C 206.72 10.09 322.73 7.97 436.00 12.00 C 427.90 14.15 422.33 21.45 412.00 20.00 C 413.63 25.50 407.26 23.78 404.00 24.00 C 404.44 28.06 401.41 27.86 404.00 31.00 C 401.23 32.04 401.41 32.93 402.00 36.00 C 387.75 35.37 374.05 36.83 360.00 37.00 C 389.76 39.88 422.34 38.13 452.00 41.00 C 472.00 41.00 492.28 42.09 512.00 44.00 C 520.59 42.61 528.74 44.41 537.00 44.00 C 536.92 45.26 534.94 44.56 535.00 46.00 C 535.50 46.00 536.00 46.00 536.00 46.00 C 539.76 46.83 543.67 50.58 545.00 54.00 C 544.51 52.27 543.48 50.73 543.00 49.00 C 542.26 41.27 553.17 34.87 559.25 29.25 C 565.33 23.62 571.92 15.04 579.00 11.00 C 561.74 6.14 540.91 10.60 522.00 9.00 C 503.09 7.40 483.43 8.08 464.00 8.00 C 444.57 7.92 424.51 8.03 405.00 8.00 C 385.49 7.97 365.49 8.01 346.00 8.00 C 326.51 7.99 307.45 8.00 288.00 8.00 C 269.06 8.00 248.82 7.81 230.00 8.00 C 211.18 8.19 191.44 7.48 173.00 8.00 C 154.56 8.52 133.90 6.70 116.22 8.22 C 98.54 9.74 76.73 7.90 60.00 9.00 C 43.27 10.10 16.53 1.59 15.00 21.00 C 13.47 40.41 16.40 59.05 15.00 78.00 C 13.60 96.94 13.93 114.91 14.00 134.00 C 14.07 153.09 13.84 171.97 14.00 191.00 C 14.16 210.03 13.65 229.01 14.00 248.00 C 14.35 266.99 13.23 286.06 14.00 305.00 C 14.77 323.94 12.30 343.15 14.00 362.00 Z"
                id="svg_6" />
        </g>
        <g fill="None" fill-opacity="0.0" stroke="#61583F" stroke-opacity="1.00" stroke-width="0.3"
            id="svg_7">
            <path
                d=" M 109.00 43.00  C 112.30 42.70 115.69 43.13 119.00 43.00 C 160.34 41.42 201.50 38.00 243.00 38.00 C 281.79 38.00 320.89 37.00 360.00 37.00 C 374.05 36.83 387.75 35.37 402.00 36.00 C 401.41 32.93 401.23 32.04 404.00 31.00 C 401.41 27.86 404.44 28.06 404.00 24.00 C 407.26 23.78 413.63 25.50 412.00 20.00 C 422.33 21.45 427.90 14.15 436.00 12.00 C 322.73 7.97 206.72 10.09 93.00 11.00 C 93.28 14.25 98.58 11.63 98.00 15.00 C 94.49 14.77 91.61 16.71 88.00 16.00 C 87.40 20.23 88.81 23.99 89.00 28.00 C 92.53 27.52 95.72 28.57 99.00 29.00 C 99.93 26.50 100.55 23.92 104.00 25.00 C 104.00 29.67 104.00 34.33 104.00 39.00 C 108.40 39.14 113.30 39.52 117.00 41.00 C 114.87 40.64 107.98 41.31 109.00 43.00 Z"
                id="svg_8" />
        </g>
        <g fill="None" fill-opacity="0.0" stroke="#97967A" stroke-opacity="1.00" stroke-width="0.3"
            id="svg_9">
            <path
                d=" M 543.00 49.00  C 543.48 50.73 544.51 52.27 545.00 54.00 C 547.35 62.28 546.04 71.56 546.78 80.22 C 547.52 88.88 548.00 99.34 548.00 108.00 C 553.29 140.59 552.10 176.21 552.00 211.00 C 549.02 201.74 552.98 189.19 550.00 180.00 C 550.00 228.13 549.00 276.18 549.00 324.00 C 549.00 336.01 550.18 349.76 550.00 361.00 C 549.82 372.24 557.93 389.70 546.00 394.00 C 545.94 397.99 543.68 401.10 543.00 405.00 C 548.32 409.71 554.37 413.90 559.25 419.75 C 564.13 425.60 574.39 426.84 575.00 435.00 C 580.44 434.03 582.23 433.61 584.00 428.00 C 585.71 418.45 583.20 407.66 584.00 398.00 C 584.80 388.34 583.64 378.67 584.00 369.00 C 584.36 359.33 583.84 349.67 584.00 340.00 C 584.16 330.33 583.93 320.67 584.00 311.00 C 584.07 301.33 583.97 291.67 584.00 282.00 C 584.03 272.33 583.98 262.67 584.00 253.00 C 584.02 243.33 583.99 233.67 584.00 224.00 C 584.01 214.33 583.99 204.68 584.00 195.00 C 584.02 185.32 583.97 175.70 584.00 166.00 C 584.03 156.30 583.94 146.74 584.00 137.00 C 584.06 127.26 583.87 117.83 584.00 108.00 C 584.13 98.17 583.71 89.03 584.00 79.00 C 584.29 68.97 583.37 60.47 584.00 50.00 C 584.63 39.53 582.60 32.45 584.00 21.00 C 585.40 9.55 576.62 13.33 572.25 20.25 C 567.87 27.17 560.69 28.17 557.25 34.25 C 553.80 40.32 543.10 41.87 543.00 49.00 M 582.00 17.00  C 583.48 40.54 583.01 64.02 583.00 88.00 C 582.99 111.98 583.12 136.99 583.00 161.00 C 582.88 185.01 583.30 209.06 583.00 233.00 C 582.70 256.94 583.68 282.28 583.00 306.00 C 582.32 329.72 585.84 354.63 580.00 376.00 C 577.00 376.00 574.00 376.00 571.00 376.00 C 565.27 371.41 563.08 365.47 562.01 356.99 C 560.93 348.51 557.24 342.68 557.00 334.00 C 556.76 325.32 555.97 317.27 556.01 308.99 C 556.05 300.71 555.82 292.65 556.00 284.00 C 556.17 275.34 555.64 266.67 556.00 258.00 C 556.36 249.33 557.31 240.72 556.79 232.77 C 556.26 224.82 556.10 214.02 556.98 205.98 C 557.85 197.93 557.10 188.78 557.00 180.00 C 556.90 171.22 557.85 161.41 558.00 153.00 C 558.14 144.59 554.02 135.69 555.01 126.99 C 555.99 118.29 553.81 109.65 552.08 101.92 C 550.34 94.20 550.56 86.29 549.02 78.98 C 547.49 71.67 550.25 63.33 554.00 57.00 C 558.21 64.80 567.45 46.33 564.00 43.00 C 566.67 41.94 568.92 39.74 572.00 40.00 C 573.00 35.57 572.66 34.11 569.00 32.00 C 565.55 42.11 555.76 45.86 547.00 50.00 C 550.87 42.44 557.84 38.26 564.25 33.25 C 570.66 28.24 574.90 19.35 582.00 17.00 Z"
                id="svg_10" />
        </g>
        <g fill="None" fill-opacity="0.0" stroke="#AFAD91" stroke-opacity="1.00" stroke-width="0.3"
            id="svg_11">
            <path
                d=" M 582.00 17.00  C 574.90 19.35 570.66 28.24 564.25 33.25 C 557.84 38.26 550.87 42.44 547.00 50.00 C 555.76 45.86 565.55 42.11 569.00 32.00 C 572.66 34.11 573.00 35.57 572.00 40.00 C 568.92 39.74 566.67 41.94 564.00 43.00 C 567.45 46.33 558.21 64.80 554.00 57.00 C 550.25 63.33 547.49 71.67 549.02 78.98 C 550.56 86.29 550.34 94.20 552.08 101.92 C 553.81 109.65 555.99 118.29 555.01 126.99 C 554.02 135.69 558.14 144.59 558.00 153.00 C 557.85 161.41 556.90 171.22 557.00 180.00 C 557.10 188.78 557.85 197.93 556.98 205.98 C 556.10 214.02 556.26 224.82 556.79 232.77 C 557.31 240.72 556.36 249.33 556.00 258.00 C 555.64 266.67 556.17 275.34 556.00 284.00 C 555.82 292.65 556.05 300.71 556.01 308.99 C 555.97 317.27 556.76 325.32 557.00 334.00 C 557.24 342.68 560.93 348.51 562.01 356.99 C 563.08 365.47 565.27 371.41 571.00 376.00 C 574.00 376.00 577.00 376.00 580.00 376.00 C 585.84 354.63 582.32 329.72 583.00 306.00 C 583.68 282.28 582.70 256.94 583.00 233.00 C 583.30 209.06 582.88 185.01 583.00 161.00 C 583.12 136.99 582.99 111.98 583.00 88.00 C 583.01 64.02 583.48 40.54 582.00 17.00 Z"
                id="svg_12" />
        </g>
        <g fill="None" fill-opacity="0.0" stroke="#353125" stroke-opacity="1.00" stroke-width="0.3"
            id="svg_21">
            <path
                d=" M 512.00 44.00  C 519.18 44.69 527.02 46.00 535.00 46.00 C 534.94 44.56 536.92 45.26 537.00 44.00 C 528.74 44.41 520.59 42.61 512.00 44.00 Z"
                id="svg_22" />
        </g>
        <g fill="None" fill-opacity="0.0" stroke="#615B48" stroke-opacity="1.00" stroke-width="0.3"
            id="svg_35">
            <path
                d=" M 51.00 184.00  C 51.00 155.29 53.00 127.52 53.00 99.00 C 52.45 95.49 54.16 90.76 52.00 88.00 C 51.43 91.84 53.19 96.91 51.00 100.00 C 51.22 94.70 49.52 90.10 46.97 86.03 C 44.42 81.96 44.59 76.19 37.00 78.00 C 35.87 70.38 29.21 63.12 22.00 62.00 C 22.92 77.78 18.08 94.47 19.00 110.00 C 19.92 125.53 17.65 141.38 19.98 154.98 C 22.30 168.57 20.53 183.70 28.00 195.00 C 26.96 200.56 26.31 210.60 36.00 208.00 C 36.22 211.25 34.50 217.63 40.00 216.00 C 41.51 220.92 36.33 232.54 44.00 232.00 C 44.22 228.75 42.50 222.37 48.00 224.00 C 48.27 210.73 49.78 196.62 51.00 184.00 Z"
                id="svg_36" />
        </g>
        <g fill="None" fill-opacity="0.0" stroke="#625D42" stroke-opacity="1.00" stroke-width="0.3"
            id="svg_37">
            <path
                d=" M 584.00 428.00  C 582.23 433.61 580.44 434.03 575.00 435.00 C 551.48 439.22 524.19 436.00 500.00 436.00 C 488.67 436.00 477.33 436.00 466.00 436.00 C 455.92 436.98 444.85 437.21 434.00 437.00 C 423.15 436.79 411.93 437.09 401.00 437.00 C 390.07 436.91 378.96 437.03 368.00 437.00 C 357.04 436.97 345.96 436.98 335.00 437.00 C 324.04 437.02 312.93 436.93 302.00 437.00 C 291.07 437.07 279.86 436.82 269.00 437.00 C 258.14 437.18 246.70 436.60 236.00 437.00 C 225.30 437.40 213.34 436.10 203.00 437.00 C 192.66 437.90 178.65 433.29 173.00 441.00 C 169.29 439.54 163.29 439.21 160.00 441.00 C 166.02 443.96 178.20 438.90 180.00 447.00 L 600.00 447.00 L 600.00 98.00 C 596.92 97.65 592.57 99.18 591.00 96.00 C 583.52 104.93 586.21 116.11 585.00 129.00 C 583.79 141.89 585.56 158.33 585.00 172.00 C 584.44 185.68 585.29 200.98 585.00 215.00 C 584.71 229.02 585.21 243.85 585.00 258.00 C 584.79 272.15 585.27 286.84 585.00 301.00 C 584.73 315.16 585.52 329.96 585.00 344.00 C 584.48 358.04 586.11 373.26 585.00 387.00 C 583.89 400.74 587.96 415.48 584.00 428.00 Z"
                id="svg_38" />
        </g>
        <g fill="None" fill-opacity="0.0" stroke="#7E816A" stroke-opacity="1.00" stroke-width="0.3"
            id="svg_39">
            <path
                d=" M 550.00 180.00  C 552.98 189.19 549.02 201.74 552.00 211.00 C 552.10 176.21 553.29 140.59 548.00 108.00 C 548.00 132.05 550.00 155.86 550.00 180.00 Z"
                id="svg_40" />
        </g>
        <g fill="None" fill-opacity="0.0" stroke="#3A3520" stroke-opacity="1.00" stroke-width="0.3"
            id="svg_41">
            <path
                d=" M 15.00 362.00  C 15.00 370.00 15.00 378.00 15.00 386.00 C 16.67 343.14 16.67 296.93 15.00 254.00 C 15.00 290.00 15.00 326.00 15.00 362.00 Z"
                id="svg_42" />
        </g>
        <g fill="None" fill-opacity="0.0" stroke="#7A7960" stroke-opacity="1.00" stroke-width="0.3"
            id="svg_43">
            <path
                d=" M 241.00 409.00  C 248.09 410.37 253.58 412.56 262.00 411.00 C 270.42 409.44 278.71 412.18 287.02 411.98 C 295.34 411.77 302.90 413.20 311.00 414.00 C 319.10 414.80 328.73 413.57 337.00 414.00 C 345.27 414.43 352.93 413.85 360.67 414.33 C 368.41 414.81 376.67 413.78 385.00 414.00 C 393.33 414.22 402.70 414.00 411.00 414.00 C 419.30 414.00 428.98 414.22 437.00 414.00 C 445.02 413.78 452.53 411.31 460.00 413.00 C 467.47 414.68 478.30 410.15 483.89 413.11 C 489.48 416.07 499.70 415.31 501.00 422.00 C 508.52 420.99 512.63 426.57 520.00 426.00 C 518.67 433.09 528.83 429.31 532.00 432.00 C 521.97 432.39 511.41 435.24 500.00 436.00 C 524.19 436.00 551.48 439.22 575.00 435.00 C 574.39 426.84 564.13 425.60 559.25 419.75 C 554.37 413.90 548.32 409.71 543.00 405.00 C 543.68 401.10 545.94 397.99 546.00 394.00 C 557.93 389.70 549.82 372.24 550.00 361.00 C 550.18 349.76 549.00 336.01 549.00 324.00 C 546.92 345.45 547.39 364.48 546.00 387.00 C 544.61 409.52 516.93 402.03 498.00 404.00 C 479.07 405.97 455.16 405.66 435.00 407.00 C 414.84 408.34 392.13 407.34 371.22 408.22 C 350.31 409.10 327.48 409.09 306.00 409.00 C 284.52 408.91 262.52 409.00 241.00 409.00 Z"
                id="svg_44" />
        </g>
        <g fill="None" fill-opacity="0.0" stroke="#7A745A" stroke-opacity="1.00" stroke-width="0.3"
            id="svg_45">
            <path
                d=" M 0.00 366.00  L 0.00 447.00 L 180.00 447.00 C 178.20 438.90 166.02 443.96 160.00 441.00 C 163.29 439.21 169.29 439.54 173.00 441.00 C 178.65 433.29 192.66 437.90 203.00 437.00 C 213.34 436.10 225.30 437.40 236.00 437.00 C 246.70 436.60 258.14 437.18 269.00 437.00 C 279.86 436.82 291.07 437.07 302.00 437.00 C 312.93 436.93 324.04 437.02 335.00 437.00 C 345.96 436.98 357.04 436.97 368.00 437.00 C 378.96 437.03 390.07 436.91 401.00 437.00 C 411.93 437.09 423.15 436.79 434.00 437.00 C 444.85 437.21 455.92 436.98 466.00 436.00 C 412.33 436.00 357.57 437.36 304.00 436.00 C 250.43 434.64 195.51 440.08 143.00 435.00 C 133.33 435.00 123.67 435.00 114.00 435.00 C 84.75 435.00 54.83 435.83 26.00 434.00 C 44.00 426.79 63.14 420.68 77.00 408.00 C 86.79 406.15 96.90 404.26 108.00 405.00 C 107.03 404.83 105.59 404.09 104.00 404.00 C 98.71 403.69 93.30 404.00 88.00 404.00 C 78.31 404.00 65.23 403.14 57.00 404.00 C 48.77 404.86 45.13 418.00 37.75 419.75 C 30.38 421.51 24.13 436.02 18.00 433.00 C 11.68 429.89 15.75 417.47 15.00 411.00 C 14.25 404.53 15.00 392.94 15.00 386.00 C 15.00 378.00 15.00 370.00 15.00 362.00 C 15.00 362.00 14.01 361.95 14.00 362.00 C 14.30 364.73 13.27 365.15 12.00 363.00 C 12.00 366.00 12.00 369.00 12.00 372.00 C 6.04 373.20 5.30 365.18 0.00 366.00 Z"
                id="svg_46" />
        </g>
        <g fill="None" fill-opacity="0.0" stroke="#625D4A" stroke-opacity="1.00" stroke-width="0.3"
            id="svg_47">
            <path
                d=" M 18.00 433.00  C 24.13 436.02 30.38 421.51 37.75 419.75 C 45.13 418.00 48.77 404.86 57.00 404.00 C 65.23 403.14 78.31 404.00 88.00 404.00 C 81.13 403.33 71.06 404.05 64.00 402.00 C 61.19 402.59 59.32 400.08 58.00 398.00 C 48.86 399.81 42.67 408.73 35.77 413.77 C 28.87 418.81 22.88 425.62 18.00 433.00 Z"
                id="svg_48" />
        </g>
        <g fill="None" fill-opacity="0.0" stroke="#89866B" stroke-opacity="1.00" stroke-width="0.3"
            id="svg_49">
            <path
                d=" M 114.00 435.00  C 100.14 433.66 84.58 433.92 70.00 434.00 C 73.07 432.54 67.76 429.12 74.00 430.00 C 73.31 425.25 79.32 423.32 82.00 426.00 C 84.03 421.46 88.86 418.46 94.00 418.00 C 88.84 414.68 106.67 415.88 100.00 411.00 C 112.49 405.53 128.49 409.07 142.00 409.00 C 142.70 405.46 137.71 408.41 137.00 406.00 C 127.32 406.00 117.90 405.00 108.00 405.00 C 96.90 404.26 86.79 406.15 77.00 408.00 C 63.14 420.68 44.00 426.79 26.00 434.00 C 54.83 435.83 84.75 435.00 114.00 435.00 Z"
                id="svg_50" />
        </g>
        <g fill="None" fill-opacity="0.0" stroke="#98977A" stroke-opacity="1.00" stroke-width="0.3"
            id="svg_51">
            <path
                d=" M 114.00 435.00  C 123.67 435.00 133.33 435.00 143.00 435.00 C 161.63 435.00 182.97 435.05 201.00 434.00 C 219.03 432.95 228.42 419.69 244.00 421.00 C 243.11 410.09 229.72 409.88 219.00 410.00 C 208.28 410.12 194.08 410.18 184.00 409.00 C 184.53 407.40 186.75 408.28 188.00 408.00 C 172.03 406.45 153.52 406.00 137.00 406.00 C 137.71 408.41 142.70 405.46 142.00 409.00 C 128.49 409.07 112.49 405.53 100.00 411.00 C 106.67 415.88 88.84 414.68 94.00 418.00 C 88.86 418.46 84.03 421.46 82.00 426.00 C 79.32 423.32 73.31 425.25 74.00 430.00 C 67.76 429.12 73.07 432.54 70.00 434.00 C 84.58 433.92 100.14 433.66 114.00 435.00 Z"
                id="svg_52" />
        </g>
        <g fill="None" fill-opacity="0.0" stroke="#8A896B" stroke-opacity="1.00" stroke-width="0.3"
            id="svg_53">
            <path
                d=" M 143.00 435.00  C 195.51 440.08 250.43 434.64 304.00 436.00 C 357.57 437.36 412.33 436.00 466.00 436.00 C 477.33 436.00 488.67 436.00 500.00 436.00 C 511.41 435.24 521.97 432.39 532.00 432.00 C 528.83 429.31 518.67 433.09 520.00 426.00 C 512.63 426.57 508.52 420.99 501.00 422.00 C 499.70 415.31 489.48 416.07 483.89 413.11 C 478.30 410.15 467.47 414.68 460.00 413.00 C 452.53 411.31 445.02 413.78 437.00 414.00 C 428.98 414.22 419.30 414.00 411.00 414.00 C 402.70 414.00 393.33 414.22 385.00 414.00 C 376.67 413.78 368.41 414.81 360.67 414.33 C 352.93 413.85 345.27 414.43 337.00 414.00 C 328.73 413.57 319.10 414.80 311.00 414.00 C 302.90 413.20 295.34 411.77 287.02 411.98 C 278.71 412.18 270.42 409.44 262.00 411.00 C 253.58 412.56 248.09 410.37 241.00 409.00 C 236.59 409.00 231.73 408.36 228.00 408.00 C 215.43 406.78 200.58 406.89 188.00 408.00 C 186.75 408.28 184.53 407.40 184.00 409.00 C 194.08 410.18 208.28 410.12 219.00 410.00 C 229.72 409.88 243.11 410.09 244.00 421.00 C 228.42 419.69 219.03 432.95 201.00 434.00 C 182.97 435.05 161.63 435.00 143.00 435.00 Z"
                id="svg_54" />
        </g>
        <g fill="#898468" fill-opacity="1.00" stroke="None" id="svg_55">
            <path
                d=" M 0.00 366.00  C 5.30 365.18 6.04 373.20 12.00 372.00 C 12.00 369.00 12.00 366.00 12.00 363.00 C 13.27 365.15 14.30 364.73 14.00 362.00 C 12.30 343.15 14.77 323.94 14.00 305.00 C 13.23 286.06 14.35 266.99 14.00 248.00 C 13.65 229.01 14.16 210.03 14.00 191.00 C 13.84 171.97 14.07 153.09 14.00 134.00 C 13.93 114.91 13.60 96.94 15.00 78.00 C 16.40 59.05 13.47 40.41 15.00 21.00 C 16.53 1.59 43.27 10.10 60.00 9.00 C 76.73 7.90 98.54 9.74 116.22 8.22 C 133.90 6.70 154.56 8.52 173.00 8.00 C 191.44 7.48 211.18 8.19 230.00 8.00 C 248.82 7.81 269.06 8.00 288.00 8.00 C 288.00 5.33 288.00 2.67 288.00 0.00 L 0.00 0.00 L 0.00 366.00 Z"
                id="svg_56" />
        </g>
        <g fill="#736E52" fill-opacity="1.00" stroke="None" id="svg_57">
            <path
                d=" M 288.00 8.00  C 307.45 8.00 326.51 7.99 346.00 8.00 C 365.49 8.01 385.49 7.97 405.00 8.00 C 424.51 8.03 444.57 7.92 464.00 8.00 C 483.43 8.08 503.09 7.40 522.00 9.00 C 540.91 10.60 561.74 6.14 579.00 11.00 C 571.92 15.04 565.33 23.62 559.25 29.25 C 553.17 34.87 542.26 41.27 543.00 49.00 C 543.10 41.87 553.80 40.32 557.25 34.25 C 560.69 28.17 567.87 27.17 572.25 20.25 C 576.62 13.33 585.40 9.55 584.00 21.00 C 582.60 32.45 584.63 39.53 584.00 50.00 C 583.37 60.47 584.29 68.97 584.00 79.00 C 583.71 89.03 584.13 98.17 584.00 108.00 C 583.87 117.83 584.06 127.26 584.00 137.00 C 583.94 146.74 584.03 156.30 584.00 166.00 C 583.97 175.70 584.02 185.32 584.00 195.00 C 583.99 204.68 584.01 214.33 584.00 224.00 C 583.99 233.67 584.02 243.33 584.00 253.00 C 583.98 262.67 584.03 272.33 584.00 282.00 C 583.97 291.67 584.07 301.33 584.00 311.00 C 583.93 320.67 584.16 330.33 584.00 340.00 C 583.84 349.67 584.36 359.33 584.00 369.00 C 583.64 378.67 584.80 388.34 584.00 398.00 C 583.20 407.66 585.71 418.45 584.00 428.00 C 587.96 415.48 583.89 400.74 585.00 387.00 C 586.11 373.26 584.48 358.04 585.00 344.00 C 585.52 329.96 584.73 315.16 585.00 301.00 C 585.27 286.84 584.79 272.15 585.00 258.00 C 585.21 243.85 584.71 229.02 585.00 215.00 C 585.29 200.98 584.44 185.68 585.00 172.00 C 585.56 158.33 583.79 141.89 585.00 129.00 C 586.21 116.11 583.52 104.93 591.00 96.00 C 592.57 99.18 596.92 97.65 600.00 98.00 L 600.00 0.00 L 288.00 0.00 C 288.00 2.67 288.00 5.33 288.00 8.00 Z"
                id="svg_58" />
        </g>
        <g fill="#514A36" fill-opacity="1.00" stroke="None" id="svg_59">
            <path
                d=" M 14.00 362.00  C 14.01 361.95 15.00 362.00 15.00 362.00 C 15.00 326.00 15.00 290.00 15.00 254.00 C 16.67 296.93 16.67 343.14 15.00 386.00 C 15.00 392.94 14.25 404.53 15.00 411.00 C 15.75 417.47 11.68 429.89 18.00 433.00 C 22.88 425.62 28.87 418.81 35.77 413.77 C 42.67 408.73 48.86 399.81 58.00 398.00 C 59.32 400.08 61.19 402.59 64.00 402.00 C 62.22 401.26 59.12 398.62 58.00 397.00 C 51.83 388.09 57.64 374.57 55.00 364.00 C 52.36 353.43 54.78 340.21 53.00 329.00 C 51.22 317.79 52.87 304.64 52.00 293.00 C 51.13 281.36 50.80 270.09 51.00 258.00 C 51.20 245.91 50.93 233.20 51.00 221.00 C 51.07 208.80 51.00 196.24 51.00 184.00 C 49.78 196.62 48.27 210.73 48.00 224.00 C 42.50 222.37 44.22 228.75 44.00 232.00 C 36.33 232.54 41.51 220.92 40.00 216.00 C 34.50 217.63 36.22 211.25 36.00 208.00 C 26.31 210.60 26.96 200.56 28.00 195.00 C 20.53 183.70 22.30 168.57 19.98 154.98 C 17.65 141.38 19.92 125.53 19.00 110.00 C 18.08 94.47 22.92 77.78 22.00 62.00 C 29.21 63.12 35.87 70.38 37.00 78.00 C 44.59 76.19 44.42 81.96 46.97 86.03 C 49.52 90.10 51.22 94.70 51.00 100.00 C 53.19 96.91 51.43 91.84 52.00 88.00 C 54.16 90.76 52.45 95.49 53.00 99.00 C 54.07 87.99 55.64 75.94 55.00 64.00 C 54.36 52.06 62.29 44.84 74.00 46.00 C 85.71 47.16 97.16 43.76 109.00 44.00 C 109.01 44.00 109.00 43.00 109.00 43.00 C 107.98 41.31 114.87 40.64 117.00 41.00 C 113.30 39.52 108.40 39.14 104.00 39.00 C 104.00 34.33 104.00 29.67 104.00 25.00 C 100.55 23.92 99.93 26.50 99.00 29.00 C 95.72 28.57 92.53 27.52 89.00 28.00 C 88.81 23.99 87.40 20.23 88.00 16.00 C 91.61 16.71 94.49 14.77 98.00 15.00 C 98.58 11.63 93.28 14.25 93.00 11.00 C 206.72 10.09 322.73 7.97 436.00 12.00 C 427.90 14.15 422.33 21.45 412.00 20.00 C 413.63 25.50 407.26 23.78 404.00 24.00 C 404.44 28.06 401.41 27.86 404.00 31.00 C 401.23 32.04 401.41 32.93 402.00 36.00 C 387.75 35.37 374.05 36.83 360.00 37.00 C 389.76 39.88 422.34 38.13 452.00 41.00 C 472.00 41.00 492.28 42.09 512.00 44.00 C 520.59 42.61 528.74 44.41 537.00 44.00 C 536.92 45.26 534.94 44.56 535.00 46.00 C 535.50 46.00 536.00 46.00 536.00 46.00 C 539.76 46.83 543.67 50.58 545.00 54.00 C 544.51 52.27 543.48 50.73 543.00 49.00 C 542.26 41.27 553.17 34.87 559.25 29.25 C 565.33 23.62 571.92 15.04 579.00 11.00 C 561.74 6.14 540.91 10.60 522.00 9.00 C 503.09 7.40 483.43 8.08 464.00 8.00 C 444.57 7.92 424.51 8.03 405.00 8.00 C 385.49 7.97 365.49 8.01 346.00 8.00 C 326.51 7.99 307.45 8.00 288.00 8.00 C 269.06 8.00 248.82 7.81 230.00 8.00 C 211.18 8.19 191.44 7.48 173.00 8.00 C 154.56 8.52 133.90 6.70 116.22 8.22 C 98.54 9.74 76.73 7.90 60.00 9.00 C 43.27 10.10 16.53 1.59 15.00 21.00 C 13.47 40.41 16.40 59.05 15.00 78.00 C 13.60 96.94 13.93 114.91 14.00 134.00 C 14.07 153.09 13.84 171.97 14.00 191.00 C 14.16 210.03 13.65 229.01 14.00 248.00 C 14.35 266.99 13.23 286.06 14.00 305.00 C 14.77 323.94 12.30 343.15 14.00 362.00 Z"
                id="svg_60" />
        </g>
        <g fill="#61583F" fill-opacity="1.00" stroke="None" id="svg_61">
            <path
                d=" M 109.00 43.00  C 112.30 42.70 115.69 43.13 119.00 43.00 C 160.34 41.42 201.50 38.00 243.00 38.00 C 281.79 38.00 320.89 37.00 360.00 37.00 C 374.05 36.83 387.75 35.37 402.00 36.00 C 401.41 32.93 401.23 32.04 404.00 31.00 C 401.41 27.86 404.44 28.06 404.00 24.00 C 407.26 23.78 413.63 25.50 412.00 20.00 C 422.33 21.45 427.90 14.15 436.00 12.00 C 322.73 7.97 206.72 10.09 93.00 11.00 C 93.28 14.25 98.58 11.63 98.00 15.00 C 94.49 14.77 91.61 16.71 88.00 16.00 C 87.40 20.23 88.81 23.99 89.00 28.00 C 92.53 27.52 95.72 28.57 99.00 29.00 C 99.93 26.50 100.55 23.92 104.00 25.00 C 104.00 29.67 104.00 34.33 104.00 39.00 C 108.40 39.14 113.30 39.52 117.00 41.00 C 114.87 40.64 107.98 41.31 109.00 43.00 Z"
                id="svg_62" />
        </g>
        <g fill="#97967A" fill-opacity="1.00" stroke="None" id="svg_63">
            <path
                d=" M 543.00 49.00  C 543.48 50.73 544.51 52.27 545.00 54.00 C 547.35 62.28 546.04 71.56 546.78 80.22 C 547.52 88.88 548.00 99.34 548.00 108.00 C 553.29 140.59 552.10 176.21 552.00 211.00 C 549.02 201.74 552.98 189.19 550.00 180.00 C 550.00 228.13 549.00 276.18 549.00 324.00 C 549.00 336.01 550.18 349.76 550.00 361.00 C 549.82 372.24 557.93 389.70 546.00 394.00 C 545.94 397.99 543.68 401.10 543.00 405.00 C 548.32 409.71 554.37 413.90 559.25 419.75 C 564.13 425.60 574.39 426.84 575.00 435.00 C 580.44 434.03 582.23 433.61 584.00 428.00 C 585.71 418.45 583.20 407.66 584.00 398.00 C 584.80 388.34 583.64 378.67 584.00 369.00 C 584.36 359.33 583.84 349.67 584.00 340.00 C 584.16 330.33 583.93 320.67 584.00 311.00 C 584.07 301.33 583.97 291.67 584.00 282.00 C 584.03 272.33 583.98 262.67 584.00 253.00 C 584.02 243.33 583.99 233.67 584.00 224.00 C 584.01 214.33 583.99 204.68 584.00 195.00 C 584.02 185.32 583.97 175.70 584.00 166.00 C 584.03 156.30 583.94 146.74 584.00 137.00 C 584.06 127.26 583.87 117.83 584.00 108.00 C 584.13 98.17 583.71 89.03 584.00 79.00 C 584.29 68.97 583.37 60.47 584.00 50.00 C 584.63 39.53 582.60 32.45 584.00 21.00 C 585.40 9.55 576.62 13.33 572.25 20.25 C 567.87 27.17 560.69 28.17 557.25 34.25 C 553.80 40.32 543.10 41.87 543.00 49.00 M 582.00 17.00  C 583.48 40.54 583.01 64.02 583.00 88.00 C 582.99 111.98 583.12 136.99 583.00 161.00 C 582.88 185.01 583.30 209.06 583.00 233.00 C 582.70 256.94 583.68 282.28 583.00 306.00 C 582.32 329.72 585.84 354.63 580.00 376.00 C 577.00 376.00 574.00 376.00 571.00 376.00 C 565.27 371.41 563.08 365.47 562.01 356.99 C 560.93 348.51 557.24 342.68 557.00 334.00 C 556.76 325.32 555.97 317.27 556.01 308.99 C 556.05 300.71 555.82 292.65 556.00 284.00 C 556.17 275.34 555.64 266.67 556.00 258.00 C 556.36 249.33 557.31 240.72 556.79 232.77 C 556.26 224.82 556.10 214.02 556.98 205.98 C 557.85 197.93 557.10 188.78 557.00 180.00 C 556.90 171.22 557.85 161.41 558.00 153.00 C 558.14 144.59 554.02 135.69 555.01 126.99 C 555.99 118.29 553.81 109.65 552.08 101.92 C 550.34 94.20 550.56 86.29 549.02 78.98 C 547.49 71.67 550.25 63.33 554.00 57.00 C 558.21 64.80 567.45 46.33 564.00 43.00 C 566.67 41.94 568.92 39.74 572.00 40.00 C 573.00 35.57 572.66 34.11 569.00 32.00 C 565.55 42.11 555.76 45.86 547.00 50.00 C 550.87 42.44 557.84 38.26 564.25 33.25 C 570.66 28.24 574.90 19.35 582.00 17.00 Z"
                id="svg_64" />
        </g>
        <g fill="#AFAD91" fill-opacity="1.00" stroke="None" id="svg_65">
            <path
                d=" M 582.00 17.00  C 574.90 19.35 570.66 28.24 564.25 33.25 C 557.84 38.26 550.87 42.44 547.00 50.00 C 555.76 45.86 565.55 42.11 569.00 32.00 C 572.66 34.11 573.00 35.57 572.00 40.00 C 568.92 39.74 566.67 41.94 564.00 43.00 C 567.45 46.33 558.21 64.80 554.00 57.00 C 550.25 63.33 547.49 71.67 549.02 78.98 C 550.56 86.29 550.34 94.20 552.08 101.92 C 553.81 109.65 555.99 118.29 555.01 126.99 C 554.02 135.69 558.14 144.59 558.00 153.00 C 557.85 161.41 556.90 171.22 557.00 180.00 C 557.10 188.78 557.85 197.93 556.98 205.98 C 556.10 214.02 556.26 224.82 556.79 232.77 C 557.31 240.72 556.36 249.33 556.00 258.00 C 555.64 266.67 556.17 275.34 556.00 284.00 C 555.82 292.65 556.05 300.71 556.01 308.99 C 555.97 317.27 556.76 325.32 557.00 334.00 C 557.24 342.68 560.93 348.51 562.01 356.99 C 563.08 365.47 565.27 371.41 571.00 376.00 C 574.00 376.00 577.00 376.00 580.00 376.00 C 585.84 354.63 582.32 329.72 583.00 306.00 C 583.68 282.28 582.70 256.94 583.00 233.00 C 583.30 209.06 582.88 185.01 583.00 161.00 C 583.12 136.99 582.99 111.98 583.00 88.00 C 583.01 64.02 583.48 40.54 582.00 17.00 Z"
                id="svg_66" />
        </g>
        <g fill="#353125" fill-opacity="1.00" stroke="None" id="svg_75">
            <path
                d=" M 512.00 44.00  C 519.18 44.69 527.02 46.00 535.00 46.00 C 534.94 44.56 536.92 45.26 537.00 44.00 C 528.74 44.41 520.59 42.61 512.00 44.00 Z"
                id="svg_76" />
        </g>
        <g fill="#615B48" fill-opacity="1.00" stroke="None" id="svg_89">
            <path
                d=" M 51.00 184.00  C 51.00 155.29 53.00 127.52 53.00 99.00 C 52.45 95.49 54.16 90.76 52.00 88.00 C 51.43 91.84 53.19 96.91 51.00 100.00 C 51.22 94.70 49.52 90.10 46.97 86.03 C 44.42 81.96 44.59 76.19 37.00 78.00 C 35.87 70.38 29.21 63.12 22.00 62.00 C 22.92 77.78 18.08 94.47 19.00 110.00 C 19.92 125.53 17.65 141.38 19.98 154.98 C 22.30 168.57 20.53 183.70 28.00 195.00 C 26.96 200.56 26.31 210.60 36.00 208.00 C 36.22 211.25 34.50 217.63 40.00 216.00 C 41.51 220.92 36.33 232.54 44.00 232.00 C 44.22 228.75 42.50 222.37 48.00 224.00 C 48.27 210.73 49.78 196.62 51.00 184.00 Z"
                id="svg_90" />
        </g>
        <g fill="#625D42" fill-opacity="1.00" stroke="None" id="svg_91">
            <path
                d=" M 584.00 428.00  C 582.23 433.61 580.44 434.03 575.00 435.00 C 551.48 439.22 524.19 436.00 500.00 436.00 C 488.67 436.00 477.33 436.00 466.00 436.00 C 455.92 436.98 444.85 437.21 434.00 437.00 C 423.15 436.79 411.93 437.09 401.00 437.00 C 390.07 436.91 378.96 437.03 368.00 437.00 C 357.04 436.97 345.96 436.98 335.00 437.00 C 324.04 437.02 312.93 436.93 302.00 437.00 C 291.07 437.07 279.86 436.82 269.00 437.00 C 258.14 437.18 246.70 436.60 236.00 437.00 C 225.30 437.40 213.34 436.10 203.00 437.00 C 192.66 437.90 178.65 433.29 173.00 441.00 C 169.29 439.54 163.29 439.21 160.00 441.00 C 166.02 443.96 178.20 438.90 180.00 447.00 L 600.00 447.00 L 600.00 98.00 C 596.92 97.65 592.57 99.18 591.00 96.00 C 583.52 104.93 586.21 116.11 585.00 129.00 C 583.79 141.89 585.56 158.33 585.00 172.00 C 584.44 185.68 585.29 200.98 585.00 215.00 C 584.71 229.02 585.21 243.85 585.00 258.00 C 584.79 272.15 585.27 286.84 585.00 301.00 C 584.73 315.16 585.52 329.96 585.00 344.00 C 584.48 358.04 586.11 373.26 585.00 387.00 C 583.89 400.74 587.96 415.48 584.00 428.00 Z"
                id="svg_92" />
        </g>
        <g fill="#7E816A" fill-opacity="1.00" stroke="None" id="svg_93">
            <path
                d=" M 550.00 180.00  C 552.98 189.19 549.02 201.74 552.00 211.00 C 552.10 176.21 553.29 140.59 548.00 108.00 C 548.00 132.05 550.00 155.86 550.00 180.00 Z"
                id="svg_94" />
        </g>
        <g fill="#3A3520" fill-opacity="1.00" stroke="None" id="svg_95">
            <path
                d=" M 15.00 362.00  C 15.00 370.00 15.00 378.00 15.00 386.00 C 16.67 343.14 16.67 296.93 15.00 254.00 C 15.00 290.00 15.00 326.00 15.00 362.00 Z"
                id="svg_96" />
        </g>
        <g fill="#7A7960" fill-opacity="1.00" stroke="None" id="svg_97">
            <path
                d=" M 241.00 409.00  C 248.09 410.37 253.58 412.56 262.00 411.00 C 270.42 409.44 278.71 412.18 287.02 411.98 C 295.34 411.77 302.90 413.20 311.00 414.00 C 319.10 414.80 328.73 413.57 337.00 414.00 C 345.27 414.43 352.93 413.85 360.67 414.33 C 368.41 414.81 376.67 413.78 385.00 414.00 C 393.33 414.22 402.70 414.00 411.00 414.00 C 419.30 414.00 428.98 414.22 437.00 414.00 C 445.02 413.78 452.53 411.31 460.00 413.00 C 467.47 414.68 478.30 410.15 483.89 413.11 C 489.48 416.07 499.70 415.31 501.00 422.00 C 508.52 420.99 512.63 426.57 520.00 426.00 C 518.67 433.09 528.83 429.31 532.00 432.00 C 521.97 432.39 511.41 435.24 500.00 436.00 C 524.19 436.00 551.48 439.22 575.00 435.00 C 574.39 426.84 564.13 425.60 559.25 419.75 C 554.37 413.90 548.32 409.71 543.00 405.00 C 543.68 401.10 545.94 397.99 546.00 394.00 C 557.93 389.70 549.82 372.24 550.00 361.00 C 550.18 349.76 549.00 336.01 549.00 324.00 C 546.92 345.45 547.39 364.48 546.00 387.00 C 544.61 409.52 516.93 402.03 498.00 404.00 C 479.07 405.97 455.16 405.66 435.00 407.00 C 414.84 408.34 392.13 407.34 371.22 408.22 C 350.31 409.10 327.48 409.09 306.00 409.00 C 284.52 408.91 262.52 409.00 241.00 409.00 Z"
                id="svg_98" />
        </g>
        <g fill="#7A745A" fill-opacity="1.00" stroke="None" id="svg_99">
            <path
                d=" M 0.00 366.00  L 0.00 447.00 L 180.00 447.00 C 178.20 438.90 166.02 443.96 160.00 441.00 C 163.29 439.21 169.29 439.54 173.00 441.00 C 178.65 433.29 192.66 437.90 203.00 437.00 C 213.34 436.10 225.30 437.40 236.00 437.00 C 246.70 436.60 258.14 437.18 269.00 437.00 C 279.86 436.82 291.07 437.07 302.00 437.00 C 312.93 436.93 324.04 437.02 335.00 437.00 C 345.96 436.98 357.04 436.97 368.00 437.00 C 378.96 437.03 390.07 436.91 401.00 437.00 C 411.93 437.09 423.15 436.79 434.00 437.00 C 444.85 437.21 455.92 436.98 466.00 436.00 C 412.33 436.00 357.57 437.36 304.00 436.00 C 250.43 434.64 195.51 440.08 143.00 435.00 C 133.33 435.00 123.67 435.00 114.00 435.00 C 84.75 435.00 54.83 435.83 26.00 434.00 C 44.00 426.79 63.14 420.68 77.00 408.00 C 86.79 406.15 96.90 404.26 108.00 405.00 C 107.03 404.83 105.59 404.09 104.00 404.00 C 98.71 403.69 93.30 404.00 88.00 404.00 C 78.31 404.00 65.23 403.14 57.00 404.00 C 48.77 404.86 45.13 418.00 37.75 419.75 C 30.38 421.51 24.13 436.02 18.00 433.00 C 11.68 429.89 15.75 417.47 15.00 411.00 C 14.25 404.53 15.00 392.94 15.00 386.00 C 15.00 378.00 15.00 370.00 15.00 362.00 C 15.00 362.00 14.01 361.95 14.00 362.00 C 14.30 364.73 13.27 365.15 12.00 363.00 C 12.00 366.00 12.00 369.00 12.00 372.00 C 6.04 373.20 5.30 365.18 0.00 366.00 Z"
                id="svg_100" />
        </g>
        <g fill="#625D4A" fill-opacity="1.00" stroke="None" id="svg_101">
            <path
                d=" M 18.00 433.00  C 24.13 436.02 30.38 421.51 37.75 419.75 C 45.13 418.00 48.77 404.86 57.00 404.00 C 65.23 403.14 78.31 404.00 88.00 404.00 C 81.13 403.33 71.06 404.05 64.00 402.00 C 61.19 402.59 59.32 400.08 58.00 398.00 C 48.86 399.81 42.67 408.73 35.77 413.77 C 28.87 418.81 22.88 425.62 18.00 433.00 Z"
                id="svg_102" />
        </g>
        <g fill="#89866B" fill-opacity="1.00" stroke="None" id="svg_103">
            <path
                d=" M 114.00 435.00  C 100.14 433.66 84.58 433.92 70.00 434.00 C 73.07 432.54 67.76 429.12 74.00 430.00 C 73.31 425.25 79.32 423.32 82.00 426.00 C 84.03 421.46 88.86 418.46 94.00 418.00 C 88.84 414.68 106.67 415.88 100.00 411.00 C 112.49 405.53 128.49 409.07 142.00 409.00 C 142.70 405.46 137.71 408.41 137.00 406.00 C 127.32 406.00 117.90 405.00 108.00 405.00 C 96.90 404.26 86.79 406.15 77.00 408.00 C 63.14 420.68 44.00 426.79 26.00 434.00 C 54.83 435.83 84.75 435.00 114.00 435.00 Z"
                id="svg_104" />
        </g>
        <g fill="#98977A" fill-opacity="1.00" stroke="None" id="svg_105">
            <path
                d=" M 114.00 435.00  C 123.67 435.00 133.33 435.00 143.00 435.00 C 161.63 435.00 182.97 435.05 201.00 434.00 C 219.03 432.95 228.42 419.69 244.00 421.00 C 243.11 410.09 229.72 409.88 219.00 410.00 C 208.28 410.12 194.08 410.18 184.00 409.00 C 184.53 407.40 186.75 408.28 188.00 408.00 C 172.03 406.45 153.52 406.00 137.00 406.00 C 137.71 408.41 142.70 405.46 142.00 409.00 C 128.49 409.07 112.49 405.53 100.00 411.00 C 106.67 415.88 88.84 414.68 94.00 418.00 C 88.86 418.46 84.03 421.46 82.00 426.00 C 79.32 423.32 73.31 425.25 74.00 430.00 C 67.76 429.12 73.07 432.54 70.00 434.00 C 84.58 433.92 100.14 433.66 114.00 435.00 Z"
                id="svg_106" />
        </g>
        <g fill="#8A896B" fill-opacity="1.00" stroke="None" id="svg_107">
            <path
                d=" M 143.00 435.00  C 195.51 440.08 250.43 434.64 304.00 436.00 C 357.57 437.36 412.33 436.00 466.00 436.00 C 477.33 436.00 488.67 436.00 500.00 436.00 C 511.41 435.24 521.97 432.39 532.00 432.00 C 528.83 429.31 518.67 433.09 520.00 426.00 C 512.63 426.57 508.52 420.99 501.00 422.00 C 499.70 415.31 489.48 416.07 483.89 413.11 C 478.30 410.15 467.47 414.68 460.00 413.00 C 452.53 411.31 445.02 413.78 437.00 414.00 C 428.98 414.22 419.30 414.00 411.00 414.00 C 402.70 414.00 393.33 414.22 385.00 414.00 C 376.67 413.78 368.41 414.81 360.67 414.33 C 352.93 413.85 345.27 414.43 337.00 414.00 C 328.73 413.57 319.10 414.80 311.00 414.00 C 302.90 413.20 295.34 411.77 287.02 411.98 C 278.71 412.18 270.42 409.44 262.00 411.00 C 253.58 412.56 248.09 410.37 241.00 409.00 C 236.59 409.00 231.73 408.36 228.00 408.00 C 215.43 406.78 200.58 406.89 188.00 408.00 C 186.75 408.28 184.53 407.40 184.00 409.00 C 194.08 410.18 208.28 410.12 219.00 410.00 C 229.72 409.88 243.11 410.09 244.00 421.00 C 228.42 419.69 219.03 432.95 201.00 434.00 C 182.97 435.05 161.63 435.00 143.00 435.00 Z"
                id="svg_108" />
        </g>
    </g>
</svg>